<svg width="1920" height="969" viewBox="0 0 1920 969" fill="none" xmlns="http://www.w3.org/2000/svg">
<g clip-path="url(#clip0_37_420)">
<path d="M1261.96 0.00708008C1300.13 41.7063 1338.88 85.0785 1355.38 140.105C1360.55 157.314 1364.35 175.312 1368.03 192.735C1373.18 217.011 1378.47 242.108 1387.52 265.331C1398.46 293.426 1416.52 312.574 1435.66 332.852C1448.7 346.663 1462.17 360.946 1473.21 378.336C1504.56 427.716 1468.78 459.919 1434.2 491.07C1404.73 517.594 1391.08 547.543 1393.63 580.082C1396.88 621.323 1427.51 664.54 1475.56 695.703C1517.07 722.609 1543.97 750.51 1549.75 806.389C1551.48 823.12 1550.87 841.886 1550.22 861.744C1548.99 899.671 1547.72 938.697 1562.24 969.007H1559.56C1545.33 938.335 1546.57 899.471 1547.8 861.667C1548.45 841.893 1549.05 823.204 1547.34 806.66C1541.65 751.744 1515.15 724.27 1474.25 697.758C1425.55 666.201 1394.51 622.273 1391.22 580.277C1388.59 546.93 1402.51 516.322 1432.57 489.248C1467.95 457.381 1501.39 427.271 1471.15 379.642C1460.24 362.452 1446.84 348.252 1433.89 334.525C1415.44 314.964 1396.35 294.757 1385.25 266.217C1376.13 242.812 1370.8 217.605 1365.65 193.232L1365.66 193.239C1361.98 175.874 1358.18 157.915 1353.06 140.816C1336.49 85.5827 1297.12 42.0164 1258.67 0.00708008H1261.96ZM394.686 715.646C497.127 654.424 615.064 670.018 729.121 685.096L731.181 685.367C750.731 687.951 772.769 687.984 796.097 688.016C837.471 688.068 880.259 688.126 912.91 702.796C957.713 712.415 1003.94 740.361 1054.26 788.242C1076.01 808.947 1095.65 831.835 1114.65 853.96C1154.18 900.033 1192.01 944.116 1246.82 969H1241.08C1188.38 943.593 1151.41 900.537 1112.8 855.556C1093.86 833.476 1074.26 810.639 1052.59 790.026C1002.56 742.409 956.66 714.651 912.277 705.142L912.032 705.064C879.833 690.555 837.257 690.503 796.083 690.457C772.678 690.431 750.57 690.4 730.864 687.796L728.805 687.525C615.161 672.492 497.643 656.943 395.932 717.744C346.125 747.506 314.675 792.565 281.371 840.272C268.839 858.205 256.435 876.518 244.438 894.212C236.994 905.207 229.543 916.196 222.04 927.158C219.386 931.009 214.931 936.306 209.76 942.443C202.987 950.485 194.774 960.247 188.976 969V969.006H186.058C191.875 959.917 200.431 949.749 207.907 940.866C213.034 934.781 217.463 929.53 220.039 925.777C227.542 914.827 234.993 903.838 242.431 892.843C254.434 875.13 266.843 856.816 279.298 838.98C312.834 790.937 344.44 745.678 394.686 715.646ZM435.311 851.176C453.938 845.058 466.877 845.814 473.844 853.417C490.876 871.964 468.53 925.666 453.744 961.202C452.588 963.974 451.51 966.577 450.51 969.006H447.889C448.993 966.293 450.2 963.393 451.504 960.253C465.16 927.43 488.023 872.468 472.049 855.072C465.786 848.243 453.699 847.707 436.124 853.476C408.251 864.4 383.67 885.647 361.059 918.373C359.167 921.119 356.823 924.355 354.351 927.759C345.97 939.335 334.58 955.06 328.182 969L328.194 969.006H325.489C331.772 954.807 343.278 938.909 352.395 926.325C354.861 922.921 357.198 919.704 359.063 916.99C381.965 883.838 406.914 862.313 435.311 851.176ZM921.763 322.806C975.011 297.799 1016.58 292.702 1056.55 306.307C1081.36 314.757 1141.33 338.885 1161.91 380.513C1181.06 419.221 1136.94 448.252 1107.75 467.471C1106.09 468.563 1104.48 469.616 1102.94 470.643C1099.5 472.923 1096.03 475.217 1092.55 477.53C1049.8 505.799 1001.36 537.847 970.724 580.334C940.461 622.298 964.99 653.61 995.104 684.631C1017.86 708.081 1042.3 730.665 1065.93 752.526C1085.97 771.059 1106.72 790.232 1126.36 809.87C1172.89 856.363 1214.1 888.838 1259.98 915.195C1279 926.125 1299.9 935.621 1320.11 944.781C1336.93 952.43 1354.11 960.253 1370.51 969.006H1365.25C1350.16 961.157 1334.49 954.006 1319.11 947.023C1298.85 937.811 1277.9 928.302 1258.78 917.307C1212.72 890.853 1171.34 858.256 1124.65 811.589C1105.04 792.002 1084.33 772.836 1064.29 754.322C1040.65 732.448 1016.18 709.831 993.36 686.329C963.724 655.812 937.414 622.376 968.767 578.894C999.662 536.045 1048.31 503.867 1091.22 475.489C1094.7 473.176 1098.18 470.882 1101.61 468.602C1103.15 467.575 1104.76 466.509 1106.43 465.417C1134.9 446.683 1177.93 418.363 1159.74 381.599C1139.55 340.798 1080.31 316.973 1055.77 308.62C1016.44 295.242 975.43 300.299 922.802 325.022C861.98 353.588 765.789 418.401 804.923 531.438C814.498 559.099 822.613 590.314 810.217 612.123C802.475 625.715 787.806 634.521 765.362 639.03C728.133 646.491 689.044 644.863 651.234 643.286C634.363 642.576 616.93 641.852 600.072 641.962C560.79 642.234 525.575 650.005 488.294 658.222C476.717 660.78 464.746 663.416 452.646 665.813C450.916 666.394 448.708 667.124 446.235 667.925C414.139 678.403 338.997 702.925 334.528 732.828L334.464 733.242L334.16 733.539C307.126 759.198 285.283 792.888 264.157 825.452C253.478 841.919 242.424 858.948 231.028 874.374C216.172 894.471 199.145 913.328 182.661 931.577C171.693 943.714 160.48 956.173 149.88 968.993H146.724C157.732 955.57 169.438 942.592 180.873 929.93C197.305 911.732 214.305 892.901 229.091 872.901C240.442 857.552 251.463 840.555 262.13 824.102C283.256 791.531 305.092 757.861 332.197 732.028C337.492 700.832 413.106 676.169 445.479 665.6C447.952 664.799 450.148 664.075 452.033 663.442C464.249 661.013 476.207 658.384 487.777 655.825C525.181 647.583 560.525 639.805 600.059 639.521C616.988 639.411 634.435 640.134 651.325 640.845C688.993 642.408 727.946 644.03 764.885 636.633C786.599 632.279 800.733 623.862 808.1 610.909C820.019 589.953 812.018 559.384 802.624 532.245C762.864 417.393 860.211 351.734 921.763 322.806ZM224.203 969C224.205 968.998 224.206 968.996 224.208 968.993H224.217L224.203 969ZM507.671 757.151C522.239 756.053 631.839 769.031 649.336 800.336C653.249 807.339 652.5 814.768 647.115 822.448C641.976 844.755 619.61 862.572 599.865 878.315C591.904 884.652 584.376 890.659 578.455 896.544C575.982 898.986 573.135 901.732 570.029 904.742C553.016 921.177 526.853 946.454 515.47 968.993H512.713C523.773 946.047 549.865 920.827 568.351 902.972C571.443 899.975 574.284 897.229 576.744 894.787C582.768 888.825 590.342 882.785 598.367 876.383C617.866 860.853 639.962 843.237 644.811 821.673L644.855 821.441L645.004 821.234C649.975 814.218 650.705 807.784 647.219 801.537C630.561 771.712 521.709 758.591 507.852 759.599C445.067 764.205 390.353 794.612 345.221 849.968C328.052 871.028 311.911 895.266 294.413 926.241C292.127 930.311 288.841 935.33 285.374 940.627C279.582 949.49 272.938 959.666 268.464 969L268.451 968.993H265.771C270.33 959.181 277.297 948.522 283.334 939.278C286.788 934.006 290.043 929.026 292.296 925.033C309.865 893.922 326.077 869.58 343.329 848.417C388.9 792.525 444.195 761.821 507.671 757.151ZM458.78 800.839C481.482 795.936 522.166 795.194 541.42 813.237C549.962 821.234 553.338 832.022 551.453 845.317C547.87 870.646 530.87 893.076 514.418 914.762C500.672 932.882 487.558 950.247 481.599 969H479.067C485.188 949.304 499.019 931.054 512.487 913.282C528.752 891.848 545.552 869.67 549.052 844.974C550.814 832.532 547.689 822.455 539.767 815.026C521.191 797.629 481.489 798.437 459.343 803.23C419.014 813.682 382.133 841.318 349.753 885.349C340.526 897.888 332.772 914.135 325.27 929.859C318.839 943.341 312.246 957.12 304.589 969V968.993H301.689C309.644 956.958 316.444 942.721 323.081 928.793C330.629 912.979 338.435 896.602 347.797 883.876C380.513 839.386 417.858 811.453 458.78 800.839ZM1925.99 601.923C1841.88 609.682 1737.3 647.499 1680.19 719.922C1643.93 765.924 1631.18 827.449 1647.72 876.642C1658.02 907.269 1679.22 925.104 1701.68 943.987C1711.01 951.842 1720.55 959.898 1729.36 969H1720.17C1712.86 961.92 1705.12 955.375 1697.52 948.987C1675.37 930.362 1652.45 911.093 1641.58 878.741C1624.34 827.501 1637.51 763.578 1675.12 715.884C1704.23 678.952 1748.07 647.738 1801.84 625.657C1841.36 609.417 1884.52 598.945 1925.99 595.302V601.923ZM1926.01 620.282C1855.31 631.038 1752.28 660.515 1695.25 741.188C1671.44 774.857 1652.05 831.538 1675.73 880.479C1688.34 906.532 1709.73 924.639 1730.4 942.126C1740.45 950.628 1750.69 959.33 1760.04 969H1756.67C1747.84 960.086 1738.25 951.952 1728.83 944L1728.84 944.006C1707.97 926.338 1686.39 908.076 1673.56 881.551C1649.41 831.648 1669.08 773.985 1693.26 739.78C1750.91 658.261 1854.87 628.577 1926.01 617.822V620.282ZM1925.99 641.86C1842.56 651.227 1753.7 701.446 1714.75 763.837C1690.03 803.443 1689.31 849.716 1712.85 884.6C1727.22 905.905 1746.76 923.302 1765.65 940.13L1770.34 944.29C1772.49 946.215 1775.53 948.645 1779.07 951.448C1785.55 956.616 1793.29 962.786 1799.5 969H1796C1790.09 963.374 1783.13 957.805 1777.55 953.373C1774 950.531 1770.92 948.076 1768.73 946.118L1764.05 941.952L1764.04 941.958C1745.03 925.02 1725.37 907.533 1710.83 885.97C1686.74 850.279 1687.45 802.985 1712.68 762.545C1734.58 727.467 1772.07 695.393 1818.21 672.253C1853.26 654.669 1890.65 643.377 1925.99 639.417V641.86ZM1926 664.172C1851.61 674.198 1764.77 718.513 1735.12 783.811C1704.71 850.73 1752.63 894.878 1798.98 937.553C1810.1 947.805 1821.47 958.277 1831.6 969H1828.27C1819.98 960.358 1810.88 951.839 1801.42 943.106L1797.34 939.355C1750.37 896.073 1701.79 851.331 1732.9 782.803C1753.12 738.261 1794.93 709.508 1826.44 693.236C1857.71 677.06 1892.79 666.078 1926 661.711V664.172ZM1925.99 694.676C1871.19 704.767 1787.21 731.434 1766.57 800.989C1749.47 858.508 1797.22 897.198 1843.39 934.62C1857.79 946.287 1871.64 957.521 1883.1 969H1879.63C1868.61 958.199 1855.49 947.553 1841.87 936.513C1795.08 898.599 1746.69 859.374 1764.25 800.297C1785.3 729.341 1870.65 702.345 1925.99 692.202V694.676ZM480.43 730.49C529.3 717.26 576.37 717.984 616.582 732.622C652.558 738.146 692.661 752.118 739.188 775.316C754.322 782.874 789.33 802.855 787.645 825.426C786.715 837.816 774.796 847.804 752.224 855.091C669.772 881.68 609.272 909.787 554.022 968.993H545.19C602.467 905.718 664.722 876.48 750.247 848.896C769.785 842.591 780.484 834.309 781.182 824.942C782.137 812.215 764.943 795.452 736.308 781.162C690.265 758.203 650.685 744.418 615.303 739.024L614.677 738.863C527.654 707.015 421.345 747.364 365.501 801.473C339.707 826.473 316.295 857.009 289.609 900.472C284.011 909.574 278.807 920.349 273.3 931.764C267.134 944.542 260.838 957.597 253.626 968.999V968.981H245.872C253.84 957.14 260.735 942.862 267.476 928.908C273.054 917.332 278.33 906.422 284.089 897.035C311.071 853.082 334.8 822.171 360.994 796.777C392.322 766.415 434.742 742.887 480.43 730.49ZM698.729 947.203C732.026 942.649 767.835 943.566 814.808 950.156C829.316 952.203 843.992 954.729 858.171 957.171C881.169 961.131 904.943 965.214 928.594 967.326C935.399 967.94 942.327 968.476 949.126 968.999H920.646C899.468 966.745 878.302 963.114 857.764 959.568C843.598 957.139 828.947 954.613 814.472 952.578C767.726 946.009 732.13 945.104 699.059 949.632C678.172 952.487 657.64 959.019 638.024 968.999V968.993H633.246C634.854 967.973 635.926 967.326 636.378 967.087C656.406 956.822 677.384 950.136 698.729 947.203ZM416.974 728.662C521.371 674.043 636.261 699.282 747.374 723.662C782.531 731.395 818.875 739.372 853.509 744.34C911.651 752.673 971.369 765.884 1014.33 805.678C1043.08 832.332 1055.31 860.517 1047.87 883.036C1041.17 903.366 1018.63 916.551 984.438 920.13C942.915 924.497 897.001 920.588 852.605 916.816C757.202 908.708 658.789 900.362 587.236 968.987H583.704C656.141 897.668 756.019 906.157 852.805 914.387C897.091 918.147 942.883 922.043 984.173 917.701C1017.37 914.213 1039.17 901.629 1045.56 882.262C1052.57 861.021 1040.27 833.055 1012.66 807.474C970.194 768.126 910.903 755.038 853.154 746.756C818.437 741.775 782.04 733.791 746.838 726.065C636.145 701.756 521.688 676.634 418.084 730.826C374.863 753.449 336.065 790.95 295.976 848.864C284.754 865.065 274.862 883.405 264.377 902.804C252.007 925.722 239.308 949.221 224.208 968.993H221.143C236.626 949.071 249.617 925.052 262.253 901.648C272.306 883.024 282.688 863.78 293.993 847.455C334.321 789.212 373.398 751.453 416.974 728.662ZM1321 0.000244141C1363.12 45.6594 1389.31 96.2798 1407.25 165.738C1421.26 220.027 1444.73 258.807 1485.78 295.429L1486.28 295.874C1531.67 336.366 1600.24 397.555 1593.49 452.549C1590.52 476.587 1573.08 497.129 1541.63 513.602C1537.8 515.604 1533.67 517.652 1529.3 519.829C1497.68 535.553 1454.38 557.065 1457.41 596.652C1468.74 631.523 1491.85 642.343 1518.58 654.85C1529.1 659.766 1539.98 664.863 1550.98 671.769C1590.7 696.685 1587.44 753.571 1584.82 799.295C1584.16 810.936 1583.53 821.912 1583.61 831.673C1583.91 866.738 1589.19 897.552 1600.73 931.571C1607.38 942.688 1616.92 951.616 1626.14 960.259C1629.28 963.185 1632.35 966.073 1635.28 968.993H1631.8C1629.43 966.674 1626.99 964.368 1624.48 962.036C1615.1 953.251 1605.41 944.18 1598.56 932.714L1598.45 932.482C1586.81 898.147 1581.48 867.061 1581.17 831.686C1581.08 821.86 1581.73 810.82 1582.39 799.147C1584.97 754.075 1588.19 697.977 1549.68 673.829C1538.81 667.021 1528.01 661.956 1517.56 657.066C1490.27 644.288 1466.71 633.248 1455.04 597.259L1454.99 596.994C1451.73 555.657 1495.95 533.686 1528.23 517.633C1532.58 515.475 1536.69 513.421 1540.51 511.438C1571.22 495.352 1588.23 475.437 1591.08 452.245C1597.67 398.524 1529.66 337.851 1484.67 297.702L1484.17 297.243C1442.74 260.286 1419.04 221.138 1404.9 166.351C1386.85 96.4668 1360.41 45.7886 1317.68 0.000244141H1321ZM1926 577.453C1835.28 583.164 1720.6 616.614 1657.71 682.635C1613.87 728.656 1607.8 796.331 1610.43 845C1612.48 883.121 1623 911.648 1644.53 937.501C1649.61 943.586 1658.29 950.066 1667.51 956.946C1672.84 960.918 1678.23 964.956 1683.02 968.993H1679.21C1675.06 965.621 1670.54 962.242 1666.06 958.903C1656.73 951.945 1647.92 945.369 1642.67 939.065C1621.07 913.134 1610.06 883.295 1608 845.129C1605.34 795.982 1611.52 727.596 1655.96 680.948C1719.34 614.423 1834.76 580.735 1926 575.011V577.453ZM1926 725.51C1891.18 731.679 1847.29 747.06 1822.39 774.909C1808.87 790.052 1802.63 807.177 1803.85 825.821C1805.94 857.319 1834.35 880.408 1857.18 898.954L1858.9 900.356C1878.74 916.506 1895.53 928.353 1911.72 937.643C1915.19 939.645 1920.36 941.571 1926 943.561V946.145C1919.94 944.013 1914.33 941.964 1910.5 939.755C1894.21 930.401 1877.32 918.495 1857.37 902.248L1855.65 900.86C1832.46 882.016 1803.58 858.547 1801.44 825.976C1800.15 806.654 1806.59 788.928 1820.59 773.281C1845.99 744.864 1890.69 729.25 1926 723.035V725.51ZM1256.48 459.946C1278.62 459.946 1296.57 466.587 1309.83 479.688C1332.73 502.311 1340.33 539.849 1347.66 576.155C1352.64 600.819 1357.35 624.133 1366.48 642.932C1381.56 673.952 1408.52 693.998 1434.61 713.384C1459.71 732.041 1485.65 751.33 1500.12 780.174C1526.05 831.828 1518.79 910.86 1466.91 941.674L1466.71 941.797L1466.49 941.829C1459.33 942.979 1451.87 943.548 1444.33 943.548L1444.32 943.541C1393.67 943.541 1343.43 918.548 1296.31 892.934C1243.81 864.387 1190.51 826.124 1133.37 775.923C1101.79 748.184 1077.91 723.94 1058.19 699.624C1048.22 687.325 1042.07 674.075 1036.12 661.265C1032.26 652.925 1028.24 644.295 1023.23 636.032L1023.05 635.768L1023.04 635.45C1021.71 604.552 1033.68 576.006 1058.7 550.618C1077.28 531.742 1103.13 514.326 1137.75 497.375C1164.44 484.294 1214.12 459.946 1256.48 459.946ZM1256.48 462.374C1214.67 462.374 1165.31 486.561 1138.8 499.545C1060.38 537.963 1023.31 582.285 1025.46 635.025L1025.47 635.037C1030.48 643.319 1034.47 651.911 1038.33 660.238C1044.21 672.899 1050.29 686.007 1060.08 698.074C1079.7 722.287 1103.49 746.447 1134.96 774.076C1191.97 824.148 1245.12 862.333 1297.48 890.782C1344.31 916.235 1394.23 941.106 1444.31 941.106C1451.66 941.106 1458.91 940.537 1465.86 939.433C1516.42 909.213 1523.35 831.874 1497.94 781.26C1483.73 752.933 1459.16 734.67 1433.15 715.335C1406.84 695.761 1379.63 675.548 1364.3 643.985C1355.02 624.902 1350.29 601.452 1345.27 576.607C1338 540.676 1330.49 503.506 1308.12 481.412C1295.31 468.777 1277.94 462.374 1256.48 462.374ZM1207.51 0.0129395C1278 64.8648 1333.6 129.743 1332.67 230.764C1332.12 289.692 1313.94 325.48 1280.11 334.266C1238.67 345.028 1190.45 325.984 1153.07 308.194C1144.32 304.02 1135.56 299.505 1126.28 294.718C1086.24 274.072 1044.85 252.728 1001.99 258.122C969.109 262.257 939.615 279.149 911.103 295.48C906.783 297.954 902.47 300.416 898.17 302.838C865.402 321.23 827.985 343.407 798.691 373.865C780.051 393.252 772.445 413.375 764.4 434.674C760.597 444.745 756.666 455.152 751.423 465.947L751.151 466.502L750.699 466.922C744.133 472.975 744.301 498.776 744.417 515.857C744.462 523.428 744.501 529.953 744.036 534.055C741.247 558.467 730.948 576.303 712.527 588.59C683.285 608.086 642.149 610.263 605.856 612.169C593.072 612.847 580.992 613.481 569.79 614.785C481.631 625.07 373.521 645.018 319.523 708.688C299.107 732.758 281.532 761.065 264.531 788.43C231.719 841.279 197.776 895.931 140.803 926.022C124.222 934.775 109.869 939.251 96.9814 939.251C74.3121 939.251 56.1555 925.388 38.2705 896.415C31.7041 885.782 25.5382 874.651 19.5723 863.876C10.1584 846.861 0.537627 829.509 -10.9746 813.598V802.797C3.14612 820.84 14.323 840.995 25.2412 860.711C31.1684 871.415 37.2891 882.494 43.7715 892.979C70.2115 935.796 94.8122 942.94 137.781 920.246C193.212 890.97 226.67 837.093 259.03 784.987C276.16 757.402 293.864 728.888 314.59 704.456C370.053 639.068 479.7 618.725 569.034 608.299C580.437 606.975 592.614 606.329 605.508 605.651C640.974 603.784 681.161 601.671 708.938 583.156C725.886 571.852 734.99 556.012 737.586 533.305C738.012 529.597 737.967 523.24 737.915 515.876C737.786 495.87 737.618 471.063 745.824 462.568C750.815 452.212 754.638 442.122 758.324 432.342C766.621 410.404 774.454 389.667 794.018 369.324C823.918 338.22 861.819 315.752 894.993 297.134C899.28 294.724 903.581 292.27 907.881 289.802C936.949 273.155 967.01 255.945 1001.17 251.643C1045.98 245.997 1090.22 268.794 1129.23 288.91C1138.47 293.678 1147.18 298.174 1155.84 302.295C1192.23 319.621 1239.05 338.194 1278.47 327.948C1317.24 317.884 1325.81 269.505 1326.18 230.699C1327.11 129.827 1269.65 65.4141 1197.88 0.000244141H1207.49L1207.51 0.0129395ZM1212.61 514.527C1233.4 514.527 1251.92 519.003 1266.19 527.459L1266.52 527.666L1266.8 527.95C1295.17 555.929 1308.86 588.241 1323.36 622.473C1327.35 631.904 1331.5 641.653 1335.98 651.459C1357.12 697.435 1388.26 725.962 1426.76 758.469C1453.4 780.976 1469.73 809.348 1470.42 834.38C1470.91 852.391 1463.81 868.464 1449.27 882.198L1448.91 882.546L1448.45 882.752C1435.54 888.967 1422.26 891.978 1407.86 891.978L1407.87 891.971C1375.27 891.971 1343.85 876.293 1313.48 861.138L1307.94 858.36C1266.63 837.823 1213.23 809.748 1166.53 774.599C1111.67 733.294 1077.88 690.696 1066.15 648.002C1059.22 622.531 1064.56 597.201 1081.58 574.759C1108.51 539.307 1162.39 514.527 1212.61 514.527ZM1212.62 521.044C1164.29 521.044 1112.54 544.765 1086.74 578.719C1070.98 599.488 1066.03 622.848 1072.4 646.272C1097.44 737.351 1220.45 807.61 1310.82 852.532L1316.37 855.311C1346.08 870.136 1376.79 885.466 1407.87 885.466C1421.11 885.466 1433.33 882.74 1445.22 877.107C1458.1 864.788 1464.39 850.484 1463.96 834.573C1463.32 811.376 1447.85 784.78 1422.6 763.462C1383.47 730.419 1351.82 701.401 1330.11 654.198C1325.58 644.307 1321.43 634.514 1317.41 625.018C1303.22 591.536 1289.81 559.901 1262.55 532.879C1249.34 525.134 1232.08 521.051 1212.62 521.051V521.044ZM1131.68 0.00708008C1136.08 2.85587 1140.54 5.7241 1145.13 8.66333C1202.67 45.5563 1267.89 87.3717 1286.27 158.173L1286.27 158.18C1297.3 200.635 1289.66 235.577 1264.77 256.559C1236.45 280.441 1188.94 282.393 1143.75 261.533C1132.56 256.365 1121.36 250.241 1110.54 244.311C1083.53 229.511 1055.58 214.207 1024.29 211.927C989.331 209.395 960.121 228.206 931.867 246.404C926.573 249.821 921.091 253.342 915.687 256.662C912.168 258.814 908.649 260.965 905.117 263.129C821.665 314.131 735.371 366.876 712.979 468.117L712.922 468.292C710.811 473.757 708.802 479.261 706.871 484.584C694.901 517.504 683.595 548.57 646.722 565.115C624.937 574.875 599.336 579.068 574.588 583.138C563.366 584.986 552.771 586.723 542.55 588.946C516.878 594.527 490.896 600.722 465.767 606.717C436.434 613.7 406.12 620.929 376.103 627.234C367.845 630.974 359.625 633.907 351.664 636.73C338.383 641.445 325.825 645.91 313.17 653.875C301.025 667.906 289.777 684.567 277.807 706.266C273.61 713.869 269.575 721.311 265.63 728.585C229.912 794.464 201.695 846.492 129.529 881.9C124.732 883.889 120.006 884.787 115.363 884.787C84.9976 884.787 58.2732 846.338 39.749 819.684C36.2237 814.619 33.1704 810.22 30.4521 806.621C19.8568 792.603 7.24011 779.903 -4.96289 767.636C-6.96446 765.633 -8.98552 763.598 -11 761.55V758.081C-8.41735 760.711 -5.82131 763.327 -3.24512 765.917C9.00949 778.236 21.6903 790.995 32.376 805.142C35.1265 808.785 38.1932 813.185 41.7314 818.295C62.6381 848.373 94.2372 893.812 128.528 879.678C199.92 844.633 227.967 792.907 263.485 727.422C267.43 720.135 271.48 712.693 275.67 705.09C287.77 683.171 299.139 666.343 311.452 652.131L311.717 651.911C324.649 643.746 337.97 639.01 350.851 634.437C358.799 631.614 367.018 628.694 375.212 624.96L375.464 624.882C405.494 618.59 435.846 611.349 465.198 604.346C490.334 598.351 516.335 592.156 542.026 586.555C552.305 584.333 562.94 582.582 574.188 580.735C598.787 576.697 624.227 572.53 645.721 562.879C681.658 546.755 692.796 516.161 704.579 483.751C706.51 478.441 708.505 472.956 710.623 467.497C733.273 365.307 819.992 312.302 903.852 261.042C907.383 258.878 910.909 256.727 914.415 254.575C919.806 251.274 925.269 247.754 930.557 244.35C959.147 225.932 988.705 206.888 1024.47 209.491C1056.3 211.804 1084.46 227.244 1111.7 242.173C1122.49 248.077 1133.65 254.194 1144.76 259.323C1189.12 279.782 1235.61 277.967 1263.21 254.692C1287.34 234.349 1294.71 200.292 1283.92 158.793C1265.78 88.9221 1203.78 49.1672 1143.82 10.7239C1138.13 7.08047 1132.61 3.53421 1127.19 0.00708008H1131.68ZM1926.01 789.858C1912.03 794.083 1899.38 800.536 1893.85 809.477C1890.22 815.355 1889.75 822.061 1892.46 829.425C1897.83 844.063 1911.36 851.647 1926 856.221L1926.01 856.228V858.799C1910.53 854.064 1896.01 846.111 1890.18 830.265C1887.2 822.177 1887.74 814.748 1891.79 808.204C1898.28 797.668 1912.65 791.201 1926.01 787.306V789.858ZM103.89 634.805C114.453 634.805 125.5 635.451 136.729 636.71C174.41 640.935 200.204 652.686 213.401 671.627C224.152 687.067 226.579 707.429 220.601 732.157C211.264 770.814 175.772 824.373 133.423 824.373C126.676 824.373 119.921 823.004 113.329 820.304C79.2445 806.363 46.3929 764.141 12.9023 691.214L12.793 690.962V690.697C13.1483 644.501 62.5284 634.805 103.89 634.805ZM103.89 637.247C63.71 637.247 15.7627 646.491 15.2266 690.445C48.4008 762.615 80.7942 804.36 114.246 818.049C120.541 820.62 126.992 821.932 133.423 821.932C174.526 821.932 209.095 769.457 218.237 731.575C224.035 707.57 221.744 687.874 211.413 673.035C198.635 654.695 173.415 643.287 136.457 639.14C125.319 637.88 114.362 637.247 103.89 637.247ZM1197.42 565.851C1202.61 565.851 1207.75 566.342 1212.69 567.318C1264.07 577.492 1282.59 633.59 1297.47 678.681C1299.97 686.271 1302.36 693.461 1304.8 700.244C1305.48 702.137 1306.28 704.25 1307.16 706.536C1313.35 722.828 1322.72 747.461 1315.69 763.217C1313.17 768.876 1308.71 772.952 1302.42 775.342L1302.18 775.439V775.433L1301.93 775.42C1275.86 774.173 1249.82 767.816 1224.5 756.511C1176.41 735.044 1138.65 699.372 1118.19 656.032L1118.13 655.858C1110.59 630.483 1119.29 611.252 1127.93 599.617C1143.14 579.1 1170.41 565.851 1197.42 565.851ZM1197.42 568.293C1171.16 568.293 1144.64 581.161 1129.89 601.065C1121.6 612.26 1113.23 630.697 1120.43 655.064V655.07C1140.35 697.208 1178.64 733.378 1225.48 754.289C1250.43 765.42 1276.11 771.718 1301.79 772.978C1307.4 770.788 1311.23 767.254 1313.47 762.222C1320.09 747.383 1310.94 723.333 1304.89 707.403C1304.01 705.096 1303.21 702.984 1302.51 701.078C1300.05 694.263 1297.67 687.06 1295.16 679.437C1279.72 632.647 1262.2 579.605 1212.22 569.714C1207.44 568.765 1202.46 568.293 1197.42 568.293ZM-11 210.099C51.4874 215.021 111.47 225.454 163.969 264.62C214.989 302.683 253.446 359.583 269.484 420.72H269.478C286.859 486.987 284.031 565.34 223.971 586.523C193.205 597.362 154.446 596.839 120.245 596.367C110.121 596.245 100.546 596.103 91.416 596.258C79.3938 596.445 67.3777 596.574 55.3555 596.684C33.5707 596.903 11.2497 597.143 -11 597.802V591.271C11.2368 590.625 33.5385 590.386 55.291 590.166C67.3003 590.056 79.3032 589.927 91.3125 589.74C100.539 589.584 110.153 589.727 120.328 589.85C153.98 590.308 192.139 590.831 221.827 580.372C293.987 554.933 268.961 444.294 263.215 422.374C247.545 362.645 209.967 307.05 160.108 269.854C109.088 231.779 50.319 221.5 -11 216.636V210.099ZM1448.06 0.000244141C1460.44 39.8389 1504.28 76.622 1543.38 109.439C1562.61 125.582 1580.79 140.821 1593.28 154.891C1647.75 216.209 1676.93 270.099 1664.92 364.098L1664.85 364.357L1662.87 369.77C1643.65 422.147 1592.56 561.277 1664.5 589.178C1694.64 600.871 1736.57 589.998 1773.57 580.411C1787 576.936 1799.68 573.641 1810.82 571.703C1847.75 565.282 1886.39 560.553 1926 557.524L1926.01 557.517V559.959C1886.54 562.989 1848.02 567.705 1811.23 574.107C1800.19 576.038 1787.56 579.3 1774.19 582.769C1748.51 589.423 1720.47 596.697 1695.42 596.698C1684.04 596.698 1673.27 595.198 1663.63 591.445C1589.46 562.691 1641.14 421.916 1660.6 368.924L1662.52 363.646C1674.38 270.661 1645.44 217.282 1591.46 156.513C1579.09 142.579 1560.99 127.391 1541.82 111.312C1502.22 78.0881 1457.83 40.8144 1445.54 0.000244141H1448.06ZM956.118 -0.0065918C960.831 6.14979 965.623 12.119 970.336 17.9524C985.858 37.1643 1000.51 55.2974 1011.32 79.012L1011.34 79.0247L1011.43 79.3674C1015.95 112.539 985.128 142.268 960.36 166.151C955.544 170.795 951.004 175.175 947.001 179.31C917.623 209.672 882.144 234.459 847.827 258.432C807.667 286.488 766.144 315.487 734.874 353.317C716.666 375.326 703.482 401.392 690.736 426.606C668.351 470.844 645.223 516.606 594.552 539.061C547.282 560.017 478.757 578.946 422.907 578.946C410.827 578.946 399.353 578.06 388.797 576.122C330.448 565.379 320.95 507.123 312.569 455.714C310.762 444.687 309.07 434.267 306.939 424.506C297.706 382.07 277.439 342.819 257.843 304.854L254.621 298.607C252.6 294.692 250.231 290.493 247.706 286.042C237.072 267.237 223.842 243.839 229.607 225.693C232.268 217.308 238.821 210.628 249.081 205.841C270.911 195.641 296.286 192.637 320.827 189.737C332.081 188.399 342.722 187.146 353.098 185.24C396.047 177.34 430.178 167.295 460.498 153.613C495.777 137.689 524.07 116.932 544.603 91.9124C564.011 68.256 571.288 43.4888 578.984 17.2678C580.637 11.6348 582.349 5.85939 584.195 0.000244141H586.745C584.815 6.09832 583.033 12.0996 581.315 17.9651C573.535 44.4317 566.193 69.4258 546.475 93.47C525.704 118.786 497.114 139.769 461.486 155.841C430.985 169.607 396.68 179.711 353.53 187.644C343.071 189.562 331.907 190.886 321.105 192.165C296.764 195.046 271.582 198.025 250.101 208.057C240.345 212.605 234.405 218.626 231.913 226.429C226.464 243.554 239.415 266.436 249.811 284.827C252.342 289.298 254.731 293.516 256.765 297.47L259.992 303.723C279.659 341.818 299.998 381.224 309.309 423.963C311.446 433.795 313.144 444.241 314.952 455.307C323.204 505.915 332.547 563.286 389.217 573.712C448.05 584.513 536.377 562.169 593.557 536.807C643.434 514.694 665.349 471.36 688.554 425.482C701.357 400.146 714.606 373.956 732.988 351.734C764.464 313.652 806.13 284.557 846.419 256.41C880.639 232.502 916.022 207.786 945.238 177.585C949.267 173.425 953.832 169.019 958.655 164.368C982.984 140.912 1013.25 111.719 1009.02 79.8586C998.358 56.5059 983.824 38.5275 968.444 19.4836C963.344 13.1787 958.146 6.69889 953.058 -0.0065918H956.118ZM-11 243.801C119.876 263.388 200.301 318.814 228.168 408.808V408.802C241.824 452.904 238.731 488.041 218.974 513.235C198.261 539.649 160.321 555.25 102.986 560.942C85.3468 562.692 67.029 563.338 49.1377 563.338C27.8565 563.338 7.19489 562.42 -11 561.367V558.919C63.5616 563.286 175.346 564.914 217.062 511.716C236.29 487.2 239.247 452.82 225.85 409.531C198.305 320.59 118.663 265.745 -11 246.268V243.801ZM1506.23 0.000244141C1538.84 45.9437 1579.78 81.8225 1622.94 119.562C1629.12 124.969 1635.31 130.388 1641.51 135.86C1703.59 190.699 1723.54 234.324 1723.59 315.397C1723.59 327.974 1722.53 342.917 1721.39 358.743C1717.31 416.121 1712.23 487.536 1751.37 519.086C1786.88 547.73 1852.78 541.012 1905.73 535.631C1912.68 534.921 1919.46 534.229 1926 533.628L1926.01 533.621V540.165C1919.67 540.747 1913.11 541.413 1906.38 542.091C1883.93 544.378 1859.21 546.904 1835.26 546.904C1801.49 546.904 1769.32 541.903 1747.33 524.177C1705.54 490.482 1710.76 417.173 1714.94 358.278C1716.06 342.58 1717.11 327.741 1717.11 315.403C1717.07 236.552 1697.65 194.123 1637.25 140.75C1631.05 135.298 1624.87 129.878 1618.69 124.478C1574.05 85.4336 1531.72 48.4049 1498.27 0.000244141H1506.23ZM646.747 0.000244141C618.092 66.5962 584.647 128.677 513.204 167.637C478.467 186.584 440.314 201.152 404.254 214.072C400.154 215.538 395.75 216.998 391.082 218.548C362.886 227.909 327.788 239.556 317.012 267.031C306.655 293.407 317.838 326.94 327.697 356.533C330.312 364.376 332.785 371.786 334.696 378.633C337.318 388.052 339.726 397.813 342.057 407.244C348.597 433.75 355.371 461.16 367.936 485.462C398.921 545.411 463.598 537.937 516.484 524.72C593.325 505.521 631.813 462.671 665.981 404.215C701.487 343.452 739.123 302.295 795.864 262.172L798.143 260.564C826.287 240.667 855.394 220.098 878.031 193.45C893.204 175.595 898.344 159.432 904.291 140.731C906.467 133.883 908.707 126.803 911.587 119.29L911.696 119.077C925.184 97.5204 894.244 54.7092 881.195 40.0256C867.081 24.1599 850.9 12.2677 833.758 0.000244141H837.936L837.948 0.00610352C854.18 11.6664 869.496 23.211 883.022 38.4114C899.648 57.1067 927.457 98.2498 913.827 120.291C910.999 127.694 908.765 134.704 906.608 141.493C900.83 159.659 895.38 176.816 879.891 195.053C857.047 221.939 827.811 242.599 799.544 262.579L797.265 264.188C740.827 304.098 703.398 345.035 668.073 405.475C633.608 464.461 594.738 507.724 517.071 527.104C496.791 532.181 474.806 536.399 453.583 536.412C418.53 536.412 385.563 524.881 365.779 486.613C353.086 462.052 346.28 434.506 339.707 407.859C337.376 398.434 334.974 388.698 332.359 379.318C330.468 372.528 328 365.151 325.398 357.334C315.404 327.354 304.073 293.361 314.752 266.158C325.948 237.618 361.647 225.771 390.327 216.255C394.976 214.705 399.366 213.251 403.44 211.791C439.404 198.904 477.447 184.368 512.042 165.505C582.471 127.088 615.71 65.8145 644.1 0.000244141H646.747ZM-11 278.497C24.7246 285.242 62.9156 294.466 96.29 310.629C143.391 333.452 172.498 365.907 185.282 409.855V409.848C194.657 442.09 191.488 468.175 175.869 487.374C148.674 520.824 87.2639 528.266 34.584 528.266C18.0872 528.266 2.46213 527.543 -11 526.645V524.203C45.0631 527.905 138.956 528.899 173.996 485.837C189.072 467.297 192.094 441.961 182.958 410.546C158.126 325.184 73.0852 297.179 -11 281.023V278.497ZM996.149 353.608C1017.7 353.608 1035.87 358.42 1048.71 367.516C1064.78 378.937 1070.08 395.1 1064.03 414.28C1048.96 461.98 967.631 516.361 911.335 516.361H911.315C887.716 516.348 858.449 507.07 853.019 462.936C850.133 443.207 856.511 423.556 871.465 406.14C898.034 375.203 949.313 353.608 996.149 353.608ZM1548.56 -0.0065918C1594.75 49.2832 1636.16 83.5927 1684.7 113.037C1741.13 147.282 1770.41 168.386 1766.98 237.747C1766.15 254.918 1764.09 272.922 1761.94 291.979C1755.52 348.471 1748.9 406.896 1771.58 454.661C1799.07 512.588 1868.34 513.357 1926 512.459L1926.01 512.452V514.881C1920.16 514.978 1914.22 515.056 1908.19 515.056C1854.04 515.056 1794.72 509.06 1769.39 455.707C1746.41 407.316 1753.08 348.543 1759.53 291.701C1761.68 272.683 1763.72 254.718 1764.57 237.631C1767.91 169.653 1739.05 148.877 1683.44 115.123C1634.16 85.2265 1592.22 50.3489 1545.22 -0.0065918H1548.56ZM996.149 356.049C950.695 356.049 899.035 377.781 873.299 407.736C858.823 424.596 852.631 443.569 855.427 462.6C860.637 505.003 888.691 513.899 911.315 513.912H911.335C966.798 513.912 1046.89 460.449 1061.71 413.536C1067.5 395.216 1062.65 380.41 1047.31 369.512C1034.9 360.701 1017.2 356.049 996.156 356.049H996.149ZM1925.99 81.2864C1856.6 124.42 1811.87 195.939 1795.9 290.125C1788.92 331.321 1777.23 400.274 1809.77 444.519C1838.32 483.337 1882.84 486.716 1926 489.759H1925.99V492.213C1882.24 489.125 1837.07 485.753 1807.82 445.973C1774.67 400.889 1786.46 331.301 1793.5 289.718C1809.69 194.227 1855.26 121.849 1925.99 78.425V81.2864ZM-11 313.653C48.0461 319.815 110.72 348.614 131.434 398.485H131.44C141.9 423.659 141.313 444.176 129.685 459.454C109.83 485.553 61.6503 491.573 21.5156 491.573C9.66139 491.573 -1.48261 491.043 -10.9932 490.359V487.917C30.265 490.928 102.657 490.966 127.754 457.975C138.808 443.44 139.298 423.743 129.193 399.421C108.874 350.506 47.2196 322.231 -11 316.107V313.653ZM746.141 53.6829C775.441 53.6829 803.934 65.1945 822.368 84.4905C836.928 99.7232 844.185 118.787 843.346 139.614C841.441 187.327 798.072 217.579 759.81 244.265C750.292 250.906 741.298 257.172 733.376 263.419C698.652 290.816 674.944 329.104 652.01 366.133C643.119 380.5 633.911 395.358 624.207 409.364C590 458.699 536.719 488.15 481.695 488.15L481.688 488.143H481.683C480.65 488.143 479.603 488.136 478.57 488.111C405.623 486.638 385.013 410.972 379.222 365.991C373.998 324.247 387.176 289.931 419.518 261.08C447.759 235.886 486.841 217.818 524.639 200.364C555.03 186.319 583.737 173.043 606.238 156.687C621.663 145.459 635.713 130.305 649.304 115.634C672.664 90.4336 696.825 64.3606 730.109 54.929L730.503 54.8518C735.578 54.0766 740.84 53.6829 746.141 53.6829ZM746.135 60.1877C741.234 60.1877 736.359 60.5426 731.665 61.2532V61.26C700.228 70.2394 676.745 95.5689 654.037 120.072C640.239 134.968 625.969 150.363 610.034 161.958C587.016 178.696 558.033 192.094 527.351 206.274C452.247 240.977 374.599 276.869 385.652 365.164C389.804 397.445 398.837 424.738 411.757 444.118C427.976 468.421 450.497 481.031 478.693 481.606C479.688 481.619 480.688 481.631 481.683 481.631C534.589 481.638 585.88 453.227 618.887 405.636C628.501 391.766 637.65 376.986 646.502 362.69C669.739 325.177 693.752 286.397 729.38 258.296C737.451 251.927 746.516 245.602 756.123 238.904C793.133 213.083 835.101 183.819 836.877 139.342C837.639 120.33 831.007 102.92 817.693 88.9924C800.454 70.9564 773.704 60.1878 746.135 60.1877ZM1926 180.247C1921.24 184.369 1916.35 188.405 1911.53 192.398C1897.44 204.045 1882.87 216.08 1872.07 229.601C1845.76 262.573 1830.45 296.546 1826.62 330.565C1819.44 366.172 1826.56 397.988 1847.23 422.658C1865.86 444.9 1893.72 459.222 1926 463.731V466.193C1892.99 461.658 1864.46 447.019 1845.37 424.247C1824.22 398.976 1816.9 366.456 1824.23 330.19C1828.11 295.803 1843.57 261.416 1870.18 228.076C1881.13 214.355 1895.8 202.236 1909.98 190.518C1915.34 186.086 1920.75 181.603 1926 177.017V180.247ZM-11 357.929C23.6271 361.999 64.5687 374.738 71.8066 411.747V411.754C74.0211 423.098 72.1682 432.038 66.3057 438.33C58.0347 447.206 42.6484 449.842 26.042 449.842C13.5484 449.842 0.370177 448.35 -11 446.909V444.448C15.0204 447.761 50.7905 451.405 64.5303 436.663C69.8246 430.972 71.4776 422.755 69.418 412.225C62.4769 376.747 22.7941 364.389 -11 360.39V357.929ZM1926 236.293C1885.24 268.567 1861.07 309.46 1859.92 350.061C1858.57 397.82 1888.25 419.008 1926 431.211V433.802C1886.96 421.367 1856.09 399.66 1857.5 349.99C1858.69 308.168 1883.75 266.113 1926 233.206V236.293ZM619.926 227.224C632.665 227.224 641.744 230.409 646.922 236.695C651.816 242.625 653.223 251.32 651.125 262.54C641.046 316.21 602.087 388.226 554.32 415.817C538.411 425.003 522.675 429.667 507.541 429.667H507.528C477.415 429.661 453.273 410.733 441.309 377.723L441.264 377.529C428.796 308.743 491.019 269.737 529.223 252.612C542.504 246.655 588.288 227.224 619.926 227.224ZM619.913 229.672C588.76 229.672 543.364 248.936 530.198 254.847C492.672 271.675 431.534 309.912 443.627 376.992V376.986C455.23 408.911 478.519 427.226 507.522 427.226H507.528C522.236 427.226 537.558 422.678 553.093 413.698C600.246 386.457 638.741 315.222 648.723 262.088C650.685 251.617 649.446 243.599 645.043 238.257C640.349 232.559 631.897 229.672 619.913 229.672ZM1926 321.249C1918.32 337.806 1914.43 356.101 1918.12 370.384C1919.6 376.12 1922.26 380.946 1926 384.848V388.291C1920.21 383.078 1917.25 376.728 1915.77 371.004C1911.64 354.977 1916.7 334.079 1926 315.92V321.249ZM1488.54 155.066C1500.27 155.066 1515.88 163.315 1522.62 169.271C1538.41 183.211 1549.67 202.424 1553.5 221.997L1553.6 222.469L1553.35 222.883C1547.74 231.772 1540.77 236.281 1532.63 236.281H1532.63C1509.36 236.281 1482.72 198.167 1476.56 178.232C1474.23 169.763 1474.56 163.503 1477.52 159.588C1479.81 156.584 1483.51 155.066 1488.54 155.066ZM1488.54 157.507C1484.29 157.507 1481.25 158.703 1479.46 161.073C1476.98 164.349 1476.78 169.891 1478.89 177.546C1484.99 197.288 1511.28 233.832 1532.63 233.832C1539.75 233.832 1545.93 229.853 1551.02 221.985C1547.21 203.096 1536.28 184.581 1521.01 171.106C1513.73 164.672 1498.59 157.501 1488.54 157.501V157.507ZM1122.2 82.469C1134.27 82.469 1147.17 83.9223 1155.03 86.1575C1192.18 96.7261 1221.44 122.818 1231.37 154.265C1236.98 172.011 1235.71 187.198 1227.7 198.206C1219.55 209.388 1204.56 215.803 1186.56 215.803C1174.33 215.803 1161.69 212.915 1150.01 207.463C1117.68 192.353 1088.04 161.823 1066.54 121.481L1066.43 121.197C1064.25 112.269 1065.53 104.672 1070.26 98.6057C1081.2 84.5682 1107.49 82.469 1122.2 82.469ZM1122.2 84.9104C1107.77 84.9104 1082.48 86.8877 1072.16 100.105C1067.95 105.518 1066.8 112.359 1068.76 120.46L1068.75 120.453C1089.99 160.26 1119.21 190.376 1151.03 205.24C1162.38 210.544 1174.67 213.355 1186.56 213.355C1203.78 213.355 1218.05 207.308 1225.73 196.759C1233.26 186.404 1234.41 171.965 1229.05 155.008C1219.36 124.33 1190.75 98.8515 1154.38 88.509C1148.53 86.8553 1136.62 84.9104 1122.2 84.9104ZM60.6436 0.000244141C62.7614 21.3375 69.1797 42.2548 75.4297 62.5842C83.0163 87.2743 90.867 112.798 91.1963 139.342H91.2031V139.562L91.1318 139.769C79.4644 172.695 26.3004 176.138 -10.9932 176.202V173.767C25.5774 173.709 77.4829 170.382 88.7627 139.155C88.3946 113.037 80.6265 87.7521 73.1045 63.301C66.8029 42.7779 60.3145 21.6539 58.2031 0.000244141H60.6436ZM91.248 0.000244141C118.592 102.081 205.131 158.07 325.244 150.35C441.135 142.908 512.255 92.3263 536.881 0.000244141H539.398C526.866 47.2806 501.892 84.2188 465.012 109.871C429.339 134.684 382.36 149.129 325.393 152.785C317.993 153.257 310.704 153.495 303.562 153.495C193.315 153.495 114.544 97.3715 88.749 0.000244141H91.248ZM34.5 0.000244141C38.7807 39.7162 39.2977 85.6339 16.6543 113.05C9.44221 121.777 0.182927 128.205 -11 132.307V129.703C-0.591893 125.737 8.04089 119.658 14.7881 111.487C36.9214 84.6906 36.3145 39.2769 32.0596 0.000244141H34.5ZM117.287 0.000244141C151.947 95.7371 251.405 125.44 328.543 121.274C381.404 118.431 422.507 104.083 454.216 77.4163C471.255 63.0946 484.975 45.7239 493.911 27.1838C495.461 23.9539 496.881 17.9069 498.386 11.5051C499.315 7.56466 500.259 3.57253 501.285 0.000244141H503.81C502.706 3.74049 501.698 8.02968 500.742 12.0735C499.206 18.6045 497.759 24.7803 496.087 28.2493C487.009 47.0995 473.062 64.7482 455.771 79.2961C423.643 106.312 382.081 120.847 328.672 123.722C323.765 123.98 318.858 124.115 313.99 124.115C270.666 124.115 228.885 113.767 194.987 94.4641C156.719 72.6746 129.174 40.1748 114.711 0.000244141H117.287ZM149.325 0.000244141C182.035 64.8778 256.887 92.0674 319.917 89.9163C373.443 88.0881 437.499 63.282 463.403 0.000244141H470.364C459.317 28.3142 440.043 51.9057 414.088 68.6047C387.661 85.6074 355.171 95.2335 320.137 96.4221C317.722 96.5061 315.307 96.5442 312.886 96.5442C277.09 96.5442 241.23 87.5845 211.161 71.0276C179.924 53.8311 156.286 29.4254 142.146 0.000244141H149.325ZM1793.27 -0.0065918C1791.33 30.3166 1784.03 50.0908 1770.5 61.6995C1760.32 70.4463 1746.47 74.7747 1728.45 74.7747C1722.6 74.7747 1716.31 74.3158 1709.56 73.4114C1664.91 67.3842 1635.52 41.9254 1604.42 14.9807C1598.7 10.0195 1592.84 4.96797 1586.84 0.000244141H1590.67C1595.89 4.37362 1601 8.78552 1606.01 13.1331C1636.83 39.8386 1665.94 65.0586 1709.87 70.9954C1736.64 74.613 1755.98 70.9626 1768.92 59.845C1781.89 48.7079 1788.92 29.5349 1790.83 0.000244141L1790.84 -0.0065918H1793.27ZM179.595 0.000244141C208.921 40.4008 261.188 64.3155 316.831 61.7444C365.159 59.5221 405.623 36.7315 427.782 0.000244141V0.00610352H430.61C408.212 38.1782 366.657 61.8999 316.94 64.1868C314.196 64.3095 311.446 64.3733 308.708 64.3733C254.698 64.3732 204.782 39.9033 176.618 0.000244141H179.595ZM0.673828 0.000244141C-1.0953 17.2225 -4.07852 34.8908 -11 50.3752V43.9475C-5.78953 30.1814 -3.31696 14.9291 -1.78027 0.000244141H0.673828ZM394.362 -0.0065918C374.063 22.7713 343.987 36.144 309.761 37.1711C308.366 37.2099 306.952 37.2356 305.558 37.2356C269.497 37.2356 234.928 23.3982 211.297 0.000244141H214.79C238.828 22.7779 273.713 35.801 309.689 34.7288C342.412 33.7468 371.255 21.2924 391.083 0.000244141V-0.0065918H394.362ZM1866.65 0.000244141C1884.24 12.8038 1906.42 15.2777 1926 13.9534V16.3889C1922.97 16.5892 1919.89 16.7249 1916.75 16.7249C1898.24 16.7248 1878.46 12.7389 1862.65 0.000244141H1866.65ZM1670.45 0.000244141C1679.54 1.82194 1688.56 2.03512 1696.81 0.000244141H1704.52C1698.28 2.69396 1691.47 3.90161 1684.41 3.90161C1676.66 3.9016 1668.59 2.45501 1660.64 0.000244141H1670.45ZM290.72 0.000244141C297.829 0.756064 305.009 0.756064 312.092 0.000244141H326.006C318.013 1.99638 309.741 3.00317 301.444 3.00317C293.148 3.00316 284.831 2.00283 276.786 0.000244141H290.72Z" fill="url(#paint0_linear_37_420)" fill-opacity="0.8"/>
</g>
<defs>
<linearGradient id="paint0_linear_37_420" x1="1219" y1="944" x2="1219" y2="45.9997" gradientUnits="userSpaceOnUse">
<stop stop-color="#CFE0B6" stop-opacity="0.08"/>
<stop offset="1" stop-color="white"/>
</linearGradient>
<clipPath id="clip0_37_420">
<rect width="1937" height="969" fill="white" transform="translate(-11)"/>
</clipPath>
</defs>
</svg>
