<svg width="116" height="35" viewBox="0 0 116 35" fill="none" xmlns="http://www.w3.org/2000/svg">
<g clip-path="url(#clip0_37_648)">
<path d="M65.2108 2.07117C65.4464 1.32193 65.2319 1.79531 65.5554 0.930276C65.6433 0.69869 65.6855 0.525002 65.6539 0.160596H116C115.663 0.545436 115.36 1.02563 114.924 1.27765L114.499 1.52286L113.236 2.71825C113.19 2.74209 113.008 2.81701 112.962 2.83745L111.826 3.92385H67.8869C67.7216 3.92385 67.5563 3.95791 67.4825 4.00559C67.3981 4.06349 67.4016 4.30188 67.3629 4.42108L66.6807 6.53259L66.3431 7.69052L65.668 9.80203L65.3269 10.9565L64.8205 12.5879L64.3141 14.2226L63.8077 15.8573L63.3013 17.492L62.795 19.1233L62.4538 20.2744L61.9475 21.9058L61.4411 23.5405L60.9347 25.1752L60.4283 26.8065L60.0872 27.961L59.412 30.0725L59.0709 31.2271L58.5681 32.8584L58.0793 34.4182C58.0089 34.6395 58.0089 34.9529 57.7698 35.0039L57.5975 34.3262C57.5448 34.1185 57.492 33.9243 57.4322 33.7336L57.2599 33.1853L57.0735 32.5348L56.7078 31.3871L56.205 29.7558L55.6986 28.1245L55.3575 26.9734L54.8546 25.3387L54.1794 23.2203L53.6766 21.5856L53.3355 20.4345L52.8291 18.8032L52.3227 17.1685L51.8163 15.5338L51.3099 13.9024L50.9688 12.7513L50.466 11.1166L49.7908 9.0017L49.4497 7.84718L48.9468 6.21587L48.4932 4.77527C48.4053 4.49941 48.3912 4.18268 48.1767 3.92385H4.27978C4.1567 3.70249 3.91055 3.66502 3.78395 3.54242L2.4969 2.31979C2.41602 2.24146 2.18041 2.1461 2.09601 2.06777L0.865225 0.95071L0.0951035 0.364935C0.0599381 0.33769 0.0142232 0.228709 0.000157016 0.194652C-0.0139091 0.160596 0.105653 0.160596 0.207633 0.160596H49.5763L49.7029 0.00393517C49.731 -0.0267158 49.8084 0.0652371 49.8646 0.109511C50.1108 0.310445 50.1249 0.504568 50.1847 0.814483C50.2093 0.947304 50.3183 1.19592 50.3605 1.34917L50.5258 1.95197L50.6981 2.50029L50.8633 3.09628L51.0357 3.64459L51.2009 4.24058L51.3732 4.78889L51.5385 5.38488L51.7108 5.9332L51.8761 6.52919L52.0484 7.0775L52.2137 7.67349L52.386 8.2218L52.5513 8.81779L52.7236 9.3661L52.8889 9.9621L53.0577 10.5138L53.2054 11.0281L53.6906 12.581L54.0282 13.7288L54.3658 14.8731L54.7034 16.0174L55.041 17.1617L55.3786 18.306L55.7408 19.4469L55.9272 20.0973L56.0995 20.6457C56.1592 20.8398 56.2085 21.0305 56.2647 21.2417L56.4124 21.8206C56.5004 22.1646 56.6516 22.512 56.7535 22.8764L56.9399 23.5303L57.1087 24.0786L57.274 24.6746L57.4463 25.2229L57.6116 25.8155L57.798 26.5136C57.9456 26.4046 58.0722 26.1628 58.1285 25.9415L58.2832 25.3319C58.3254 25.1718 58.4063 24.9674 58.4555 24.7869L58.6208 24.191L58.7931 23.6426L58.9584 23.0467L59.1307 22.4983C59.1905 22.3042 59.2397 22.1135 59.2925 21.9023L59.4578 21.2723L59.929 19.7806L60.2666 18.6329L60.6041 17.4852L61.1105 15.8573L61.4481 14.7096L61.7857 13.5653L62.1233 12.421L62.4609 11.2767L62.7985 10.1324L63.1361 8.98467L63.6424 7.35676L63.98 6.20905L64.3176 5.06475L64.6833 3.92385C64.7537 3.7093 64.8099 3.49815 64.8697 3.27337L65.035 2.61608C65.0737 2.45942 65.1545 2.25167 65.2108 2.07458V2.07117Z" fill="#075627"/>
<path d="M107.705 25.001L107.698 28.2807H91.1558L91.1628 24.5617C91.3457 24.4255 91.4793 24.262 91.5496 24.0781C91.7887 23.8261 92.0525 23.574 92.2635 23.3152L92.8718 22.5694C93.0512 22.348 93.2164 22.113 93.438 21.9019C93.6595 21.6907 93.7721 21.4727 93.969 21.2582L94.5985 20.5771C94.7954 20.3625 94.9079 20.1411 95.1294 19.9368C95.351 19.7325 95.46 19.5077 95.6604 19.2965L96.2899 18.6188C96.4868 18.4042 96.5994 18.1829 96.8209 17.9785C97.0424 17.7742 97.155 17.5494 97.3519 17.3383L98.1501 16.4903C97.9778 16.6742 99.3809 15.0292 99.2086 15.2131L100.007 14.3651C100.204 14.1574 100.32 13.9292 100.538 13.7249C101.076 13.2208 100.999 13.0029 101.807 12.3388L101.786 12.0901H92.689L92.696 9.54612C92.696 9.38265 92.6292 9.18852 92.5589 9.06932L92.7312 8.66064H107.712L107.68 11.9812C107.68 12.366 107.149 12.6521 106.973 12.9075C106.818 13.1766 106.667 13.3605 106.446 13.5648C106.224 13.7691 106.115 13.9939 105.918 14.2051L105.289 14.8828C105.092 15.0973 104.979 15.3187 104.758 15.5231C104.536 15.7274 104.427 15.9522 104.227 16.1633L103.597 16.841C103.4 17.0556 103.288 17.277 103.066 17.4813C102.845 17.6857 102.736 17.9104 102.535 18.1216L101.906 18.7993C101.709 19.0139 101.596 19.2352 101.375 19.4396C101.153 19.6439 101.041 19.8653 100.844 20.0798L100.183 20.7984C100.471 20.4851 99.0715 22.1437 99.3563 21.8372L98.4913 22.7635C98.3471 22.9167 98.2627 23.0904 98.122 23.2369C97.5453 23.8295 97.7915 23.8022 97.0565 24.4357L97.2921 24.6605C97.3308 24.6979 97.4433 24.497 97.4855 24.531L97.6438 24.6434C97.686 24.6741 97.7704 24.5719 97.8477 24.5072H107.191C107.321 24.5072 107.504 24.5378 107.571 24.5923C107.648 24.657 107.705 24.8614 107.705 24.9908V25.001Z" fill="#075627"/>
<path d="M72.3386 24.027C72.2226 24.245 72.0854 24.5038 71.9905 24.7388L71.6529 25.5596L71.3153 26.3837L71.1184 26.9218L70.7913 27.746C70.7245 27.9129 70.6577 28.107 70.5241 28.2807L66.1284 28.2739L66.4238 27.5212L66.7614 26.7039L67.099 25.8865L67.4366 25.0692L67.9641 23.9691L68.2981 23.1518L68.6357 22.3344L68.9733 21.517C69.0788 21.265 69.1913 21.0232 69.3039 20.761L69.6344 20.0049L69.972 19.1842L70.2955 18.4247L71.0129 16.6844L71.4138 15.7751L71.8463 14.8147L72.1839 14.0007L72.5215 13.1834L72.838 12.4205L73.3655 11.2183L73.7066 10.4078L74.0406 9.59041C74.1672 9.27709 74.2762 8.9774 74.4872 8.66748H78.8337C78.8512 8.88885 78.8864 9.1 78.9567 9.26688L79.2803 10.0434L79.4737 10.5815L79.7831 11.3477L80.075 12.0561L80.6552 13.6261L80.9471 14.3345L81.2952 15.2098L81.6539 16.1361L81.988 17.0693L82.3115 17.8832L82.6034 18.5916L83.1238 20.0049L83.486 20.9279L83.8518 21.861L84.0346 22.348L84.2913 23.0019L84.7063 24.0815L84.963 24.7388L85.1459 25.2258L85.5116 26.159L85.8703 27.0853L86.3098 28.2773L82.0513 28.2909C81.7067 28.2909 81.6258 28.1649 81.5344 27.872C81.3902 27.402 81.2038 26.9457 81.0385 26.4825L80.1594 24.0338H72.3457L72.3386 24.027ZM73.8753 20.182L73.5764 20.9211H78.8301C78.8583 20.618 78.8091 20.3625 78.7071 20.1003L78.3308 19.1195L77.6521 17.3247L76.7695 14.8181L76.3862 13.9973L76.0486 14.7772L75.7039 15.598L75.5141 16.1361L75.2081 16.899L74.8705 17.7163L74.5787 18.4247L74.1672 19.5043L73.8824 20.1854L73.8753 20.182Z" fill="#075627"/>
<path d="M29.6656 9.20212L29.2998 10.074C28.9482 10.9118 28.8778 11.2694 28.5825 11.9811L28.2871 12.6895L27.9495 13.5069L27.6013 14.3821L27.2391 15.3153L27.0563 15.8023L26.7961 16.4562L26.4057 17.4813L26.0928 18.2442L25.7481 19.1228L25.4035 20.0015L25.1116 20.7099L24.5314 22.2799L24.2395 22.9882L23.8914 23.8635L23.5292 24.7967L23.3463 25.2837L23.0861 25.9376L22.6712 27.0171L22.3793 27.7289C22.3195 27.8754 22.2914 28.0729 22.2703 28.2738H18.0856C18.0504 28.032 18.0188 27.889 17.9379 27.6574L11.6292 9.33835C11.5378 9.0693 11.4815 8.91264 11.478 8.65721H15.5185C15.5431 8.88539 15.5748 9.07611 15.6451 9.25661L15.9686 10.0774L16.3027 11.065C16.5629 11.8381 16.7106 12.1923 16.999 13.0369L17.2522 13.7861L20.0197 21.7895C20.1076 22.0483 20.1428 22.2083 20.3538 22.4502L20.825 21.1798L21.1766 20.3216L21.5248 19.4464L21.8835 18.52L22.3441 17.2667L22.7028 16.3404L23.065 15.4141L23.4202 14.4911L23.6769 13.8338L23.8598 13.3468L24.222 12.4137L24.5842 11.4873L24.9358 10.5644L25.1996 9.90709L25.3648 9.42689L25.7024 8.65381H29.8871L29.655 9.1919L29.6656 9.20212Z" fill="#075627"/>
<path d="M42.5465 27.5144L42.6977 27.6847C42.7328 27.7222 42.5394 27.8278 42.5711 27.872L42.7082 28.0559C42.7399 28.1002 42.5148 28.2705 42.4269 28.2705L38.833 28.2807V8.67432H42.4269C42.5148 8.67432 42.7434 8.8446 42.7082 8.88887L42.557 9.07959L42.6871 9.22603C42.7223 9.2635 42.6133 9.34864 42.543 9.43037V27.5213L42.5465 27.5144Z" fill="#075627"/>
</g>
<defs>
<clipPath id="clip0_37_648">
<rect width="116" height="35" fill="white"/>
</clipPath>
</defs>
</svg>
