<svg width="177" height="54" viewBox="0 0 177 54" fill="none" xmlns="http://www.w3.org/2000/svg">
<g clip-path="url(#clip0_37_619)">
<path d="M99.5027 3.19524C99.8622 2.03926 99.5349 2.76963 100.029 1.435C100.163 1.0777 100.227 0.809719 100.179 0.247493H177C176.485 0.841246 176.024 1.58212 175.358 1.97095L174.709 2.34927L172.783 4.19359C172.713 4.23037 172.434 4.34597 172.364 4.37749L170.631 6.05366H103.586C103.334 6.05366 103.082 6.10621 102.969 6.17977C102.84 6.2691 102.846 6.63691 102.787 6.82081L101.746 10.0786L101.23 11.8651L100.2 15.1228L99.6798 16.9041L98.9071 19.421L98.1345 21.9431L97.3618 24.4653L96.5891 26.9874L95.8165 29.5043L95.296 31.2803L94.5233 33.7972L93.7506 36.3193L92.978 38.8414L92.2053 41.3583L91.6848 43.1396L90.6546 46.3973L90.1341 48.1786L89.3668 50.6955L88.621 53.102C88.5137 53.4436 88.5137 53.927 88.1488 54.0058L87.8859 52.9602C87.8054 52.6396 87.7249 52.3401 87.6337 52.0459L87.3708 51.1999L87.0864 50.1963L86.5283 48.4256L85.761 45.9087L84.9884 43.3918L84.4679 41.6158L83.7006 39.0937L82.6704 35.8254L81.9031 33.3033L81.3826 31.5272L80.6099 29.0104L79.8372 26.4882L79.0646 23.9661L78.2919 21.4492L77.7714 19.6732L77.0041 17.1511L75.9739 13.8881L75.4534 12.1068L74.6861 9.58991L73.9939 7.36728C73.8598 6.94167 73.8383 6.453 73.511 6.05366H6.53038C6.34258 5.71212 5.96698 5.65432 5.77381 5.46516L3.80995 3.57882C3.68653 3.45796 3.32703 3.31084 3.19825 3.18999L1.32024 1.46653L0.14514 0.56276C0.0914826 0.520724 0.0217278 0.352582 0.000264841 0.300037C-0.0211982 0.247493 0.161237 0.247493 0.316844 0.247493H75.6466L75.8398 0.00578792C75.8827 -0.0415022 76.0007 0.100368 76.0866 0.168676C76.4622 0.478689 76.4837 0.778192 76.5749 1.25635C76.6124 1.46127 76.7788 1.84485 76.8432 2.0813L77.0954 3.01133L77.3583 3.8573L77.6105 4.77683L77.8734 5.6228L78.1256 6.54233L78.3885 7.38829L78.6407 8.30782L78.9036 9.15379L79.1558 10.0733L79.4187 10.9193L79.6709 11.8388L79.9338 12.6848L80.186 13.6043L80.4489 14.4503L80.7011 15.3698L80.9587 16.221L81.1841 17.0145L81.9245 19.4105L82.4396 21.1812L82.9548 22.9467L83.4699 24.7122L83.985 26.4777L84.5001 28.2432L85.0528 30.0035L85.3371 31.0071L85.6001 31.853C85.6913 32.1525 85.7664 32.4468 85.8523 32.7726L86.0776 33.6658C86.2118 34.1965 86.4425 34.7325 86.5981 35.2947L86.8825 36.3035L87.14 37.1495L87.3922 38.069L87.6552 38.915L87.9073 39.8293L88.1917 40.9064C88.4171 40.7383 88.6103 40.3652 88.6961 40.0237L88.9322 39.0831C88.9966 38.8362 89.12 38.5209 89.1951 38.2424L89.4473 37.3229L89.7102 36.4769L89.9624 35.5574L90.2253 34.7114C90.3166 34.4119 90.3917 34.1177 90.4722 33.7919L90.7244 32.8198L91.4434 30.5184L91.9585 28.7476L92.4736 26.9769L93.2463 24.4653L93.7614 22.6945L94.2765 20.929L94.7916 19.1635L95.3067 17.398L95.8218 15.6325L96.3369 13.8618L97.1096 11.3502L97.6247 9.5794L98.1398 7.8139L98.6979 6.05366C98.8052 5.72263 98.891 5.39686 98.9822 5.05006L99.2344 4.03595C99.2935 3.79425 99.4169 3.47373 99.5027 3.2005V3.19524Z" fill="#FFF5E0"/>
<path d="M164.342 38.5729L164.331 43.633H139.091L139.102 37.8951C139.381 37.6849 139.584 37.4327 139.692 37.149C140.057 36.7601 140.459 36.3713 140.781 35.972L141.709 34.8213C141.983 34.4797 142.235 34.1172 142.573 33.7914C142.911 33.4656 143.083 33.1293 143.383 32.7983L144.344 31.7474C144.644 31.4164 144.816 31.0748 145.154 30.7596C145.492 30.4443 145.658 30.0975 145.964 29.7717L146.925 28.7261C147.225 28.3951 147.397 28.0535 147.735 27.7383C148.073 27.423 148.245 27.0762 148.545 26.7504L149.763 25.4421C149.5 25.7258 151.641 23.1879 151.378 23.4716L152.596 22.1633C152.897 21.8428 153.074 21.4907 153.407 21.1754C154.228 20.3978 154.11 20.0615 155.344 19.0369L155.311 18.6533H141.43L141.441 14.7282C141.441 14.476 141.339 14.1765 141.232 13.9926L141.495 13.3621H164.353L164.304 18.4852C164.304 19.0789 163.494 19.5203 163.226 19.9144C162.99 20.3295 162.759 20.6132 162.421 20.9285C162.083 21.2438 161.917 21.5905 161.616 21.9163L160.656 22.962C160.355 23.293 160.184 23.6345 159.846 23.9498C159.507 24.2651 159.341 24.6119 159.035 24.9376L158.075 25.9833C157.774 26.3143 157.603 26.6558 157.265 26.9711C156.927 27.2864 156.76 27.6332 156.454 27.9589L155.494 29.0046C155.193 29.3356 155.022 29.6771 154.684 29.9924C154.346 30.3077 154.174 30.6492 153.873 30.9802L152.865 32.0889C153.305 31.6055 151.169 34.1644 151.604 33.6915L150.284 35.1208C150.064 35.3572 149.935 35.6252 149.72 35.8511C148.84 36.7654 149.216 36.7234 148.095 37.7007L148.454 38.0475C148.513 38.1053 148.685 37.7953 148.749 37.8478L148.991 38.0212C149.055 38.0685 149.184 37.9109 149.302 37.811H163.559C163.757 37.811 164.036 37.8583 164.138 37.9424C164.256 38.0422 164.342 38.3575 164.342 38.5572V38.5729Z" fill="#FFF5E0"/>
<path d="M110.379 37.0702C110.202 37.4064 109.992 37.8058 109.848 38.1683L109.332 39.4347L108.817 40.7062L108.517 41.5364L108.018 42.808C107.916 43.0655 107.814 43.365 107.61 43.633L100.903 43.6225L101.354 42.4612L101.869 41.2002L102.384 39.9391L102.899 38.678L103.704 36.9808L104.213 35.7198L104.729 34.4587L105.244 33.1976C105.405 32.8088 105.576 32.4357 105.748 32.0311L106.252 30.8647L106.768 29.5983L107.261 28.4266L108.356 25.7416L108.968 24.3386L109.628 22.8569L110.143 21.6011L110.658 20.34L111.141 19.163L111.946 17.3082L112.466 16.0576L112.976 14.7965C113.169 14.3131 113.335 13.8507 113.657 13.3726H120.289C120.316 13.7141 120.37 14.0399 120.477 14.2974L120.971 15.4954L121.266 16.3256L121.738 17.5078L122.183 18.6008L123.069 21.0231L123.514 22.116L124.045 23.4664L124.593 24.8956L125.102 26.3353L125.596 27.5911L126.041 28.6841L126.836 30.8647L127.388 32.2886L127.946 33.7283L128.225 34.4797L128.617 35.4886L129.25 37.1542L129.642 38.1683L129.921 38.9197L130.479 40.3594L131.026 41.7887L131.697 43.6277L125.199 43.6487C124.673 43.6487 124.55 43.4543 124.41 43.0024C124.19 42.2773 123.906 41.5732 123.654 40.8586L122.312 37.0807H110.389L110.379 37.0702ZM112.724 31.1379L112.267 32.2781H120.284C120.327 31.8105 120.252 31.4164 120.096 31.0118L119.522 29.4985L118.486 26.7294L117.14 22.8621L116.555 21.5958L116.04 22.7991L115.514 24.0654L115.224 24.8956L114.757 26.0726L114.242 27.3337L113.797 28.4266L113.169 30.0922L112.734 31.1431L112.724 31.1379Z" fill="#FFF5E0"/>
<path d="M45.2653 14.1975L44.7073 15.5427C44.1707 16.8353 44.0634 17.387 43.6127 18.4852L43.162 19.5781L42.6468 20.8392L42.1156 22.1896L41.563 23.6293L41.2839 24.3807L40.8869 25.3895L40.2913 26.9711L39.8137 28.1481L39.2879 29.5037L38.762 30.8594L38.3167 31.9523L37.4313 34.3746L36.986 35.4676L36.4548 36.8179L35.9021 38.2577L35.6231 39.0091L35.226 40.0179L34.5929 41.6836L34.1475 42.7817C34.0563 43.0077 34.0134 43.3124 33.9812 43.6225H27.5959C27.5423 43.2494 27.494 43.0287 27.3706 42.6714L17.7444 14.4077C17.6049 13.9926 17.519 13.7509 17.5137 13.3568H23.6789C23.7165 13.7089 23.7648 14.0031 23.8721 14.2816L24.3657 15.5479L24.8755 17.0717C25.2725 18.2645 25.4979 18.8109 25.9379 20.114L26.3242 21.27L30.5471 33.618C30.6812 34.0173 30.7349 34.2643 31.0568 34.6373L31.7758 32.6774L32.3124 31.3533L32.8436 30.0029L33.3909 28.5737L34.0938 26.6401L34.6411 25.2109L35.1938 23.7816L35.7358 22.3577L36.1275 21.3436L36.4065 20.5922L36.9592 19.1525L37.5118 17.7233L38.0484 16.2993L38.4508 15.2852L38.703 14.5443L39.2181 13.3516H45.6034L45.2492 14.1818L45.2653 14.1975Z" fill="#FFF5E0"/>
<path d="M64.9201 42.4507L65.1509 42.7134C65.2045 42.7712 64.9094 42.9341 64.9577 43.0024L65.167 43.2862C65.2153 43.3545 64.8718 43.6172 64.7377 43.6172L59.2539 43.633V13.3831H64.7377C64.8718 13.3831 65.2206 13.6458 65.167 13.7141L64.9362 14.0084L65.1348 14.2343C65.1884 14.2921 65.0221 14.4235 64.9148 14.5496V42.4612L64.9201 42.4507Z" fill="#FFF5E0"/>
</g>
<defs>
<clipPath id="clip0_37_619">
<rect width="177" height="54" fill="white"/>
</clipPath>
</defs>
</svg>
